<svg xmlns="http://www.w3.org/2000/svg" width="479.898" height="475.739" viewBox="0 0 479.898 475.739">
  <path style="-webkit-filter: drop-shadow( 0px 0px 5px rgba(0, 0, 0, .15));
  filter: drop-shadow( 0px 0px 5px rgba(0, 0, 0, .15));" id="Tracé_101" data-name="Tracé 101" d="M-43.636,0-77.252,50.333-111.932.726l-18.075,57.764-47.251-37.825-1.068,60.516L-234.32,58.2l16.025,58.367-60.2-6.276,31.819,51.487-59.53,10.939,45.037,40.437-54.036,27.268,54.6,26.111-44.165,41.387,59.749,9.669-30.716,52.153,60.054-7.555-14.779,58.695,55.492-24.168,2.356,60.48,46.436-38.823,19.3,57.366,33.616-50.332,34.68,49.605,18.075-57.764,47.251,37.826,1.069-60.517,55.992,22.981L67.782,359.172l60.2,6.276L96.163,313.96l59.529-10.938-45.036-40.437,54.036-27.268L110.088,209.2l44.165-41.387L94.5,158.148l30.716-52.153-60.053,7.556L79.947,54.856,24.455,79.024,22.1,18.543-24.336,57.366Z" transform="translate(315.205)" fill="#fff"/>
</svg>
