<?xml version="1.0" standalone="no"?>
<!DOCTYPE svg PUBLIC "-//W3C//DTD SVG 20010904//EN"
 "http://www.w3.org/TR/2001/REC-SVG-20010904/DTD/svg10.dtd">
<svg version="1.0" xmlns="http://www.w3.org/2000/svg"
 width="700.000000pt" height="700.000000pt" viewBox="0 0 700.000000 700.000000"
 preserveAspectRatio="xMidYMid meet">
<metadata>
Created by potrace 1.14, written by Peter Selinger 2001-2017
</metadata>
<g transform="translate(0.000000,700.000000) scale(0.100000,-0.100000)"
fill="#000000" stroke="none">
<path d="M3280 6994 c-19 -2 -84 -9 -145 -14 -662 -65 -1335 -346 -1859 -778
-127 -105 -340 -316 -451 -447 -450 -532 -722 -1170 -807 -1890 -17 -145 -17
-576 0 -730 52 -469 197 -931 418 -1327 288 -519 734 -985 1234 -1291 447
-272 923 -435 1455 -497 155 -18 460 -24 620 -11 725 57 1354 300 1922 743
138 107 389 351 512 498 451 538 717 1162 803 1885 16 139 16 595 0 730 -84
690 -316 1264 -728 1795 -116 150 -447 481 -594 594 -526 405 -1103 644 -1745
722 -122 14 -557 27 -635 18z m181 -1069 l62 -75 35 26 35 27 43 -49 c40 -45
45 -48 58 -31 7 9 17 17 22 16 5 0 182 -216 394 -480 212 -263 389 -479 394
-479 5 0 50 16 100 36 123 48 251 120 366 204 154 113 241 151 347 151 140 0
254 -120 256 -271 0 -74 -23 -122 -112 -226 -144 -169 -343 -301 -601 -399
l-85 -32 -90 -156 c-49 -86 -93 -155 -96 -154 -3 1 -48 51 -100 110 l-94 108
-215 4 c-282 4 -450 24 -817 95 -269 53 -367 64 -558 64 -202 1 -240 -6 -436
-85 -205 -81 -394 -186 -742 -413 -78 -50 -117 -70 -113 -59 2 10 14 59 26
108 65 267 270 527 547 698 58 35 172 149 689 689 340 356 620 647 621 647 1
1 30 -33 64 -74z m2092 -2147 l47 -20 0 -55 c0 -30 -3 -53 -7 -51 -110 56
-189 71 -241 44 -32 -17 -52 -43 -52 -70 0 -34 47 -67 150 -106 118 -45 161
-80 180 -150 23 -85 -12 -166 -90 -210 -39 -22 -57 -25 -140 -25 -81 0 -102 4
-145 25 l-50 25 -3 58 -3 58 56 -32 c58 -33 154 -49 209 -35 64 16 88 91 43
134 -12 12 -65 37 -117 57 -52 19 -106 43 -120 53 -64 48 -89 154 -53 229 44
93 204 127 336 71z m-3862 11 c89 -30 139 -102 139 -199 0 -100 -54 -174 -145
-199 -22 -6 -79 -11 -127 -11 l-88 0 0 -120 0 -120 -55 0 -55 0 0 323 c0 178
3 327 7 330 11 12 288 8 324 -4z m277 -16 c10 -16 49 -81 87 -146 43 -75 71
-115 77 -109 6 6 45 70 87 143 l77 134 58 3 c32 2 56 -1 55 -6 -2 -4 -55 -94
-116 -198 l-113 -191 0 -131 0 -132 -55 0 -55 0 0 131 0 130 -115 195 c-63
108 -115 198 -115 200 0 2 24 4 54 4 48 0 57 -3 74 -27z m867 0 c76 -40 105
-88 105 -174 0 -87 -46 -155 -122 -181 l-37 -13 76 -110 c41 -61 82 -120 90
-132 15 -23 15 -23 -46 -23 l-61 0 -90 136 -91 135 -37 -3 -37 -3 -3 -132 -3
-133 -54 0 -55 0 0 323 c0 178 3 327 8 331 4 5 77 6 162 4 133 -4 161 -7 195
-25z m623 -25 l3 -48 -161 0 -161 0 3 -87 3 -88 143 -3 142 -3 0 -44 0 -45
-145 0 -145 0 0 -95 0 -94 158 -3 157 -3 3 -47 3 -48 -215 0 -216 0 0 323 c0
178 3 327 7 331 4 3 99 5 212 4 l206 -3 3 -47z m257 -39 c33 -48 103 -149 155
-225 l95 -139 3 228 2 227 50 0 50 0 0 -330 0 -330 -42 0 -43 0 -160 234 -160
233 -3 -233 -2 -234 -55 0 -55 0 0 323 c0 178 3 327 7 331 4 4 27 6 52 4 44
-3 46 -4 106 -89z m903 39 l3 -48 -161 0 -161 0 3 -87 3 -88 143 -3 142 -3 0
-44 0 -45 -145 0 -145 0 0 -95 0 -94 158 -3 157 -3 3 -47 3 -48 -215 0 -216 0
0 323 c0 178 3 327 7 331 4 3 99 5 212 4 l206 -3 3 -47z m512 2 l0 -50 -155 0
-155 0 0 -90 0 -90 140 0 140 0 0 -45 0 -45 -140 0 -140 0 0 -95 0 -95 155 0
155 0 0 -50 0 -50 -210 0 -210 0 0 323 c0 178 3 327 7 330 3 4 98 7 210 7
l203 0 0 -50z m-3521 -719 c6 -10 42 -101 80 -202 38 -101 74 -196 80 -211 10
-28 10 -28 -28 -28 -37 0 -38 1 -62 63 l-25 62 -84 0 -84 0 -24 -62 c-23 -62
-24 -63 -62 -63 l-38 0 83 219 c46 121 86 225 90 230 11 19 63 13 74 -8z m531
-16 l0 -35 -70 0 -70 0 -2 -192 -3 -193 -37 -3 -38 -3 0 195 0 196 -75 0 -75
0 0 35 0 35 185 0 185 0 0 -35z m150 -160 l0 -195 105 0 105 0 0 -35 0 -35
-145 0 -145 0 0 223 c0 123 3 227 7 230 3 4 21 7 40 7 l33 0 0 -195z m586 -34
c46 -123 84 -226 84 -228 0 -1 -18 -3 -40 -3 -22 0 -40 4 -40 10 0 5 -9 34
-21 65 l-20 55 -84 0 -83 0 -24 -62 c-23 -60 -25 -63 -61 -66 -20 -2 -37 -1
-37 1 0 2 36 101 80 218 44 118 82 220 85 227 3 8 18 12 41 10 l36 -3 84 -224z
m325 75 l104 -155 5 152 5 152 35 0 35 0 3 -227 2 -228 -32 0 c-31 1 -39 9
-143 163 l-110 162 -3 -162 -2 -163 -35 0 -35 0 0 230 0 230 33 0 c31 0 38 -7
138 -154z m629 119 l0 -35 -75 0 -75 0 0 -195 0 -195 -35 0 -35 0 -2 193 -3
192 -72 3 -73 3 0 34 0 35 185 0 185 0 0 -35z m148 -197 l2 -228 -40 0 -40 0
0 231 0 230 38 -3 37 -3 3 -227z m394 197 c61 -44 88 -101 88 -190 0 -59 -5
-82 -28 -128 -28 -56 -28 -57 -10 -74 19 -17 19 -18 -7 -40 l-27 -23 -16 20
c-16 19 -22 20 -65 11 -168 -38 -298 126 -246 312 12 46 59 101 108 128 55 30
147 22 203 -16z m238 -135 c3 -91 9 -173 14 -183 10 -21 57 -47 86 -47 29 0
76 26 86 47 5 10 11 92 14 183 l5 165 35 0 35 0 0 -177 c0 -196 -3 -207 -75
-255 -91 -62 -224 -25 -266 74 -10 23 -14 80 -14 198 l0 166 38 -3 37 -3 5
-165z m660 135 l0 -34 -107 -3 -108 -3 -3 -57 -3 -58 101 0 100 0 0 -35 0 -35
-100 0 -100 0 0 -65 0 -65 110 0 110 0 0 -35 0 -35 -145 0 -145 0 0 230 0 230
145 0 145 0 0 -35z m305 21 c32 -14 35 -19 35 -55 l0 -40 -35 20 c-41 25 -125
30 -149 10 -9 -8 -16 -26 -16 -42 0 -33 17 -46 108 -79 100 -36 141 -105 108
-183 -30 -73 -125 -103 -224 -71 -57 19 -57 19 -60 62 l-3 42 34 -20 c45 -26
124 -35 157 -18 31 17 39 68 14 89 -9 8 -51 28 -92 44 -84 34 -111 61 -118
121 -10 79 51 134 148 134 32 0 74 -7 93 -14z m63 -773 l-3 -218 -2135 0
-2135 0 -3 218 -2 217 2140 0 2140 0 -2 -217z"/>
<path d="M3701 5806 c-9 -11 -10 -20 -4 -28 6 -7 175 -220 377 -473 345 -432
366 -460 344 -468 -53 -20 -255 -56 -379 -67 -156 -15 -263 -11 -694 25 -170
14 -375 29 -455 33 l-145 7 300 313 c165 172 301 318 303 325 1 7 -5 20 -15
29 -17 15 -38 -5 -333 -314 -173 -181 -322 -335 -330 -343 -8 -7 -60 -21 -115
-30 -322 -55 -625 -235 -811 -481 -55 -74 -161 -261 -152 -270 3 -2 22 22 43
53 58 90 218 240 340 322 192 128 422 228 628 273 88 19 132 22 322 22 254 -1
402 -15 820 -79 456 -70 456 -70 680 -69 482 2 873 100 1058 265 70 63 85 102
68 185 -22 111 -87 185 -182 210 -93 24 -211 -15 -349 -115 -104 -75 -207
-136 -320 -189 -110 -52 -207 -89 -213 -81 -24 28 -755 937 -763 947 -8 12
-12 11 -23 -2z"/>
<path d="M3077 5157 l-288 -302 113 -8 c62 -4 280 -21 483 -37 340 -28 555
-37 555 -25 0 5 -571 676 -573 674 -1 0 -132 -137 -290 -302z"/>
<path d="M1470 3590 l0 -110 86 0 c122 0 163 27 164 108 0 87 -37 112 -165
112 l-85 0 0 -110z"/>
<path d="M2580 3601 l0 -101 94 0 c87 0 97 2 125 26 26 22 31 33 31 69 0 32
-7 52 -24 72 -23 27 -29 28 -125 31 l-101 4 0 -101z"/>
<path d="M1541 2873 c-13 -38 -26 -74 -29 -80 -3 -10 13 -13 58 -13 55 0 61 2
55 18 -3 9 -16 45 -28 80 -12 34 -24 62 -27 62 -3 0 -16 -30 -29 -67z"/>
<path d="M2746 2929 c-3 -8 -14 -39 -26 -69 -29 -79 -28 -80 35 -80 30 0 55 4
55 10 0 11 -48 142 -55 148 -3 3 -7 -1 -9 -9z"/>
<path d="M4188 2960 c-36 -28 -58 -80 -58 -139 0 -94 45 -158 118 -168 46 -6
62 9 37 37 -16 17 -15 19 9 36 25 15 28 15 45 0 9 -9 20 -16 24 -16 3 0 11 24
18 54 26 116 -32 216 -125 216 -28 0 -52 -7 -68 -20z"/>
<path d="M1470 2265 l0 -155 101 0 c98 0 100 0 97 23 -3 20 -9 22 -75 25 l-73
3 0 129 0 130 -25 0 -25 0 0 -155z"/>
<path d="M1750 2265 l0 -155 100 0 100 0 0 25 c0 24 -2 25 -75 25 l-75 0 0 40
0 39 68 3 c61 3 67 5 70 26 3 21 0 22 -67 22 l-71 0 0 40 0 40 75 0 c73 0 75
1 75 25 l0 25 -100 0 -100 0 0 -155z"/>
<path d="M2180 2265 l0 -155 65 0 c125 0 175 45 175 157 0 52 -4 66 -27 94
-36 42 -79 59 -153 59 l-60 0 0 -155z m161 76 c24 -25 29 -37 29 -81 0 -69
-29 -100 -95 -100 l-45 0 0 105 0 105 41 0 c31 0 47 -6 70 -29z"/>
<path d="M2510 2265 l0 -155 95 0 c95 0 95 0 95 25 0 24 -2 25 -70 25 l-70 0
0 40 0 40 65 0 c63 0 65 1 65 25 0 24 -2 25 -65 25 l-65 0 0 40 0 40 70 0 c68
0 70 1 70 25 0 25 0 25 -95 25 l-95 0 0 -155z"/>
<path d="M2790 2265 l0 -155 25 0 c24 0 25 3 25 55 l0 55 39 0 c102 0 156 65
119 145 -18 39 -57 55 -138 55 l-70 0 0 -155z m154 89 c39 -39 7 -84 -60 -84
l-44 0 0 50 0 50 44 0 c27 0 51 -6 60 -16z"/>
<path d="M3149 2393 c-6 -16 -32 -85 -59 -155 l-48 -128 28 0 c23 0 29 6 39
40 l12 40 59 0 60 0 16 -40 c13 -32 21 -40 41 -40 16 0 23 5 20 13 -2 6 -28
76 -57 155 -48 128 -56 142 -77 142 -16 0 -27 -8 -34 -27z m65 -130 c7 -21 4
-23 -33 -23 l-40 0 14 41 c26 73 32 71 59 -18z"/>
<path d="M3400 2265 l0 -155 25 0 c24 0 25 3 25 60 0 51 3 60 18 60 11 0 34
-23 58 -57 29 -43 46 -59 67 -61 15 -2 27 0 27 3 0 4 -18 32 -40 63 l-40 56
28 12 c66 27 63 132 -4 160 -18 8 -63 14 -99 14 l-65 0 0 -155z m154 89 c36
-36 6 -74 -60 -74 l-44 0 0 45 0 45 44 0 c27 0 51 -6 60 -16z"/>
<path d="M3680 2395 c0 -23 3 -25 50 -25 l50 0 0 -130 0 -130 25 0 25 0 0 130
0 130 50 0 c47 0 50 2 50 25 l0 25 -125 0 -125 0 0 -25z"/>
<path d="M4010 2265 l0 -155 101 0 c98 0 100 0 97 23 -3 20 -9 22 -75 25 l-73
3 0 39 0 40 65 0 c63 0 65 1 65 25 0 24 -2 25 -65 25 l-65 0 0 40 0 40 76 0
c72 0 75 1 72 23 -3 21 -8 22 -100 25 l-98 3 0 -156z"/>
<path d="M4290 2265 l0 -155 25 0 25 0 0 108 0 107 45 -69 c25 -38 47 -71 50
-74 2 -2 23 26 47 64 l43 69 3 -103 c3 -101 3 -102 27 -102 l25 0 0 155 c0
149 -1 155 -20 155 -14 0 -32 -19 -59 -62 -69 -111 -60 -110 -114 -19 -39 66
-53 81 -73 81 l-24 0 0 -155z"/>
<path d="M4680 2265 l0 -155 101 0 c98 0 100 0 97 23 -3 20 -9 22 -75 25 l-73
3 0 39 0 40 65 0 c63 0 65 1 65 25 0 24 -2 25 -65 25 l-65 0 0 40 0 40 76 0
c72 0 75 1 72 23 -3 21 -8 22 -100 25 l-98 3 0 -156z"/>
<path d="M4960 2265 l0 -155 25 0 c24 0 24 1 27 110 l3 109 74 -109 c59 -87
80 -110 98 -110 l24 0 -3 153 c-3 148 -4 152 -25 155 -22 3 -22 0 -25 -105
l-3 -108 -73 108 c-59 88 -77 107 -97 107 l-25 0 0 -155z"/>
<path d="M5284 2405 c-10 -24 6 -35 52 -35 l44 0 0 -130 0 -130 30 0 30 0 0
130 0 130 50 0 c47 0 50 2 50 25 l0 25 -125 0 c-101 0 -127 -3 -131 -15z"/>
</g>
</svg>
