<svg xmlns="http://www.w3.org/2000/svg" width="48" height="47.584" viewBox="0 0 48 47.584">
  <g id="Groupe_494" data-name="Groupe 494" transform="translate(-416 -2727)">
    <g id="Groupe_405" data-name="Groupe 405" transform="translate(416 2727)">
      <path id="Tracé_108" data-name="Tracé 108" d="M27.163,0,23.8,5.034,20.332.073,18.524,5.85,13.8,2.067,13.691,8.12l-5.6-2.3,1.6,5.838-6.021-.628,3.183,5.15L.9,17.275,5.4,21.32,0,24.047l5.462,2.612L1.044,30.8l5.976.967L3.948,36.982l6.007-.756L8.476,42.1l5.55-2.417.236,6.049,4.645-3.883,1.93,5.738L24.2,42.55l3.469,4.962,1.808-5.778L34.2,45.517l.107-6.053,5.6,2.3-1.6-5.838,6.021.628L41.146,31.4,47.1,30.309l-4.5-4.045L48,23.537l-5.462-2.612,4.417-4.14-5.976-.967L44.052,10.6l-6.007.756,1.478-5.871L33.973,7.9l-.236-6.049L29.093,5.738Z" transform="translate(0)" fill="#fe2e6e"/>
    </g>
    <text id="_" data-name="+" transform="translate(438.659 2761.918) rotate(7)" fill="#fff" font-size="32" font-family="NormalidadExtended-Light, Normalidad" font-weight="300"><tspan x="-11" y="0">+</tspan></text>
  </g>
</svg>
