<svg xmlns="http://www.w3.org/2000/svg" width="587.156" height="582.067" viewBox="0 0 587.156 582.067">
  <g id="Groupe_557" data-name="Groupe 557" transform="translate(84.042 131)">
    <g id="Groupe_405" data-name="Groupe 405" transform="translate(-84.042 -131)">
      <path id="Tracé_108" data-name="Tracé 108" d="M17.06,0-24.07,61.582-66.5.889-88.615,71.563l-57.811-46.279-1.307,74.042-68.509-28.118,19.607,71.412-73.655-7.678,38.931,62.994-72.835,13.384,55.1,49.475-66.114,33.362L-248.4,326.1l-54.037,50.637,73.1,11.83-37.582,63.81,73.476-9.244-18.083,71.813,67.894-29.569,2.882,74,56.814-47.5,23.613,70.188,41.13-61.581,42.431,60.692L45.359,510.5l57.811,46.28,1.308-74.043,68.506,28.118L153.38,439.447l73.655,7.678-38.93-63,72.834-13.383-55.1-49.475,66.114-33.362-66.809-31.947,54.037-50.637-73.1-11.831,37.581-63.809-73.475,9.245,18.082-71.813L100.37,96.686l-2.883-74-56.813,47.5Z" transform="translate(315.205)" fill="#fe2e6e"/>
    </g>
  </g>
</svg>
