<svg xmlns="http://www.w3.org/2000/svg" width="134.248" height="133.085" viewBox="0 0 134.248 133.085">
  <g id="Groupe_561" data-name="Groupe 561" transform="translate(0 552.182)">
    <g id="Groupe_405" data-name="Groupe 405" transform="translate(0 -552.182)">
      <path id="Tracé_108" data-name="Tracé 108" d="M-239.235,0l-9.4,14.08L-258.341.2-263.4,16.362-276.615,5.781l-.3,16.929-15.664-6.429,4.483,16.328-16.84-1.756,8.9,14.4-16.653,3.06,12.6,11.312-15.116,7.628,15.275,7.3-12.355,11.578,16.714,2.7-8.593,14.589,16.8-2.113-4.134,16.419,15.523-6.761.659,16.919,12.99-10.86,5.4,16.048,9.4-14.08,9.7,13.877,5.056-16.159,13.218,10.582.3-16.929,15.663,6.429-4.483-16.328,16.84,1.756-8.9-14.4,16.653-3.06-12.6-11.312,15.116-7.628-15.275-7.3,12.355-11.578-16.714-2.705L-192,29.651l-16.8,2.114,4.134-16.419-15.523,6.761-.659-16.919-12.99,10.86Z" transform="translate(315.205)" fill="#fe2e6e"/>
    </g>
  </g>
</svg>
