<svg xmlns="http://www.w3.org/2000/svg" width="94.852" height="94.03" viewBox="0 0 94.852 94.03">
  <path id="Tracé_169" data-name="Tracé 169" d="M-261.529,0l-6.644,9.948-6.854-9.8L-278.6,11.561l-9.339-7.476-.211,11.961L-299.218,11.5l3.167,11.536-11.9-1.24,6.289,10.176-11.766,2.162,8.9,7.992-10.68,5.389,10.793,5.161-8.729,8.18,11.809,1.911L-307.4,73.08l11.87-1.493-2.921,11.6,10.968-4.777.466,11.954,9.178-7.673,3.815,11.338,6.644-9.948,6.854,9.8,3.572-11.417,9.339,7.476.211-11.961,11.067,4.542-3.167-11.536,11.9,1.24L-233.9,62.054l11.766-2.162-8.9-7.992,10.68-5.389-10.793-5.161,8.729-8.18-11.809-1.911,6.071-10.308-11.869,1.493,2.921-11.6-10.968,4.777-.466-11.954-9.178,7.673Z" transform="translate(315.205)" fill="#ffda4f"/>
</svg>
